<?xml version="1.0" encoding="UTF-8"?>
<svg version="1.1" xmlns="http://www.w3.org/2000/svg" width="201" height="75">
<path d="M0 0 C66.33 0 132.66 0 201 0 C201 24.75 201 49.5 201 75 C134.67 75 68.34 75 0 75 C0 50.25 0 25.5 0 0 Z " fill="none" transform="translate(0,0)"/>
<path d="M0 0 C4.24038462 2.82692308 4.24038462 2.82692308 5.625 5.75 C6.40905625 11.45618712 5.81868702 15.84540922 2.625 20.75 C-0.46939681 24.72851018 -3.5277969 25.63141467 -8.375 26.75 C-8.705 26.42 -9.035 26.09 -9.375 25.75 C-11.58880133 25.21563416 -13.81636053 24.78715388 -16.05078125 24.34765625 C-18.3772355 23.74942516 -20.27342599 22.89937343 -22.375 21.75 C-22.42398438 22.71679688 -22.47296875 23.68359375 -22.5234375 24.6796875 C-22.95529199 32.19991228 -23.59453056 39.40340279 -25.375 46.75 C-25.705 46.75 -26.035 46.75 -26.375 46.75 C-26.82950014 41.43048158 -27.27479633 36.11030173 -27.71166992 30.78930664 C-27.86149932 28.98017738 -28.01381896 27.17125252 -28.16870117 25.36254883 C-28.39119749 22.75912728 -28.60465739 20.15509626 -28.81640625 17.55078125 C-28.88718887 16.74538406 -28.9579715 15.93998688 -29.03089905 15.11018372 C-29.64161237 7.38803262 -29.64161237 7.38803262 -28.375 3.75 C-25.56472612 1.87648408 -24.13631342 1.3294204 -20.9375 0.6875 C-17.63449431 0.01495147 -17.63449431 0.01495147 -14.36328125 -0.79296875 C-9.40977492 -1.93159398 -4.75169559 -1.75988726 0 0 Z " fill="blue" transform="translate(179.375,15.25)"/>
<path d="M0 0 C4.94125366 1.79020383 9.04965509 3.3280512 11.46484375 8.2734375 C11.54400383 12.62724198 10.71468456 15.3132556 8.02734375 18.6484375 C5.46484375 21.2734375 5.46484375 21.2734375 3.46484375 22.2734375 C5.34680048 27.42505644 8.15426744 31.8671473 11.00390625 36.53125 C12.46484375 39.2734375 12.46484375 39.2734375 12.46484375 42.2734375 C7.9866284 38.65597003 4.25492826 35.14740475 0.96484375 30.3984375 C-1.3476916 27.22279375 -1.3476916 27.22279375 -4.75 25.48046875 C-7.1890798 25.13290322 -7.1890798 25.13290322 -10.53515625 25.2734375 C-10.44807587 27.37838051 -10.33989932 29.48245892 -10.22265625 31.5859375 C-10.16464844 32.75769531 -10.10664062 33.92945313 -10.046875 35.13671875 C-9.49328328 38.53010925 -8.97687606 39.09147511 -6.53515625 41.2734375 C-6.34765625 44.9609375 -6.34765625 44.9609375 -6.53515625 48.2734375 C-10.67122389 47.66519226 -13.99574273 46.52579156 -17.53515625 44.2734375 C-18.78478312 40.42431945 -18.3902609 37.43983693 -17.59765625 33.5234375 C-16.63246654 28.31784769 -16.4486052 23.55305163 -16.53515625 18.2734375 C-16.20515625 17.9434375 -15.87515625 17.6134375 -15.53515625 17.2734375 C-15.15569624 14.12504649 -14.81315778 10.98038837 -14.54882812 7.8203125 C-14.1959651 4.61019578 -13.93526119 2.68851518 -11.65625 0.32421875 C-7.68113616 -1.64503654 -4.18808656 -1.20028367 0 0 Z " fill="blue" transform="translate(92.53515625,16.7265625)"/>
<path d="M0 0 C-1.423125 0.804375 -1.423125 0.804375 -2.875 1.625 C-6.36739592 4.2792209 -7.04735876 5.80837855 -8 10 C-7.27554687 10.17015625 -6.55109375 10.3403125 -5.8046875 10.515625 C1.01857534 12.22598955 6.66587156 13.65441591 10.875 19.6875 C12.31869395 23.93837664 12.71772414 27.55808502 12 32 C9.76581897 36.38561462 7.05408749 39.22615067 3 42 C2.34 42 1.68 42 1 42 C0.67 44.31 0.34 46.62 0 49 C-3.17563373 49.98913182 -4.66944677 50.1257291 -7.82421875 48.92578125 C-8.76910156 48.39339844 -9.71398438 47.86101563 -10.6875 47.3125 C-11.64011719 46.79300781 -12.59273437 46.27351563 -13.57421875 45.73828125 C-16.05720864 43.95900508 -16.94898544 42.82114435 -18 40 C-18.66 40 -19.32 40 -20 40 C-20.66 39.01 -21.32 38.02 -22 37 C-21.67 36.01 -21.34 35.02 -21 34 C-20.01 34.66 -19.02 35.32 -18 36 C-15.61201236 36.09989212 -15.61201236 36.09989212 -13.0625 35.75 C-12.20785156 35.66234375 -11.35320313 35.5746875 -10.47265625 35.484375 C-7.98144597 34.9963654 -6.20259801 34.2357188 -4 33 C-2.66666667 32.33333333 -1.33333333 31.66666667 0 31 C0 28.36 0 25.72 0 23 C-0.86625 22.7525 -1.7325 22.505 -2.625 22.25 C-7.55855825 20.4227562 -12.6193315 17.90137633 -15 13 C-15 8.65207925 -14.48068665 6.60085831 -11.75 3.1875 C-7.82641216 0.06646422 -4.93143144 -1.82645609 0 0 Z " fill="blue" transform="translate(30,16)"/>
<path d="M0 0 C3.60564324 0.88840488 7.12701547 1.93812817 10.671875 3.04296875 C14.81949456 4.23565278 18.70467987 4.70377103 23 5 C21.6875 7 21.6875 7 19 9 C13.64080884 9.69937851 8.74141975 9.79564844 4 7 C4.48339844 7.99966797 4.48339844 7.99966797 4.9765625 9.01953125 C6.206619 12.60171868 6.29097255 15.94606722 6.375 19.6875 C6.60560305 25.73841354 7.47979073 30.50496654 10.2578125 35.984375 C11.14902753 38.4047274 10.85128338 39.60778593 10 42 C7.36 41.67 4.72 41.34 2 41 C2 41.66 2 42.32 2 43 C1.34 43 0.68 43 0 43 C-1.10247351 35.90328311 -0.687863 29.81823739 0.4375 22.75 C0.73083732 20.82857649 1.02130237 18.9067118 1.30859375 16.984375 C1.44064209 16.14616211 1.57269043 15.30794922 1.70874023 14.44433594 C2.00724256 11.93921834 2.04976583 9.52034412 2 7 C-2.8858651 4.60692322 -6.43217161 3.35755826 -12 4 C-13.94369738 5.35429841 -13.94369738 5.35429841 -15 7 C-13.5386713 -1.47570649 -7.21799795 -0.81844609 0 0 Z " fill="blue" transform="translate(124,17)"/>
<path d="M0 0 C1.19625 0.185625 2.3925 0.37125 3.625 0.5625 C7.28283707 1.0311197 10.37862166 0.81481013 14 0 C14.33 0.99 14.66 1.98 15 3 C13.68334336 4.67987227 12.34736973 6.34466005 11 8 C8.49125173 13.7067131 8.33598914 19.73855442 7.875 25.875 C7.78863281 26.94492187 7.70226563 28.01484375 7.61328125 29.1171875 C7.40217102 31.74433699 7.19795597 34.37183211 7 37 C8.00232666 37.19698486 8.00232666 37.19698486 9.02490234 37.39794922 C9.91129395 37.57342285 10.79768555 37.74889648 11.7109375 37.9296875 C12.58540527 38.10226074 13.45987305 38.27483398 14.36083984 38.45263672 C17.93824797 39.19459315 21.46367352 40.08317462 25 41 C24.34 41.99 23.68 42.98 23 44 C20.00581999 44.36060213 17.18932839 44.55887003 14.1875 44.625 C7.03741926 44.80687157 7.03741926 44.80687157 0 46 C-0.6875 44.375 -0.6875 44.375 -1 42 C-0.01965496 39.99029266 0.98553388 37.99270131 2 36 C5.21197792 26.98341624 6.0833842 18.37522892 4 9 C3.401875 9.515625 2.80375 10.03125 2.1875 10.5625 C1.465625 11.036875 0.74375 11.51125 0 12 C-0.99 11.67 -1.98 11.34 -3 11 C-2.34 10.34 -1.68 9.68 -1 9 C-1.99 8.34 -2.98 7.68 -4 7 C-1.69 6.34 0.62 5.68 3 5 C3 4.34 3 3.68 3 3 C2.01 2.67 1.02 2.34 0 2 C0 1.34 0 0.68 0 0 Z " fill="blue" transform="translate(48,12)"/>
<path d="M0 0 C0.66 0.66 1.32 1.32 2 2 C1.91412516 5.95024253 1.4874858 7.52534277 -1.375 10.3125 C-5.681381 13.08088778 -8.96132936 13.17995252 -14 13 C-14.99 12.67 -15.98 12.34 -17 12 C-17 9.36 -17 6.72 -17 4 C-16.30132812 3.79503906 -15.60265625 3.59007812 -14.8828125 3.37890625 C-13.97273437 3.10949219 -13.06265625 2.84007812 -12.125 2.5625 C-11.22007812 2.29566406 -10.31515625 2.02882813 -9.3828125 1.75390625 C-3.10366492 -0.23277487 -3.10366492 -0.23277487 0 0 Z " fill="none" transform="translate(175,22)"/>
<path d="M0 0 C1.5675 -0.061875 3.135 -0.12375 4.75 -0.1875 C6.07257813 -0.23970703 6.07257813 -0.23970703 7.421875 -0.29296875 C10.44671583 0.05076316 11.75583602 1.00227459 14 3 C13.64212875 5.64824722 13.31760089 7.55535876 11.75 9.75 C9.44468865 11.39665097 7.82651933 11.79810576 5 12 C2.1875 11.0625 2.1875 11.0625 0 10 C0 6.7 0 3.4 0 0 Z " fill="none" transform="translate(83,23)"/>
<path d="M0 0 C1.19625 0.185625 2.3925 0.37125 3.625 0.5625 C7.28283707 1.0311197 10.37862166 0.81481013 14 0 C14.33 0.99 14.66 1.98 15 3 C13.70513179 4.69672386 12.36639342 6.3603279 11 8 C10.649375 8.886875 10.29875 9.77375 9.9375 10.6875 C9 13 9 13 6 15 C5.34 13.02 4.68 11.04 4 9 C3.401875 9.515625 2.80375 10.03125 2.1875 10.5625 C1.465625 11.036875 0.74375 11.51125 0 12 C-0.99 11.67 -1.98 11.34 -3 11 C-2.34 10.34 -1.68 9.68 -1 9 C-1.99 8.34 -2.98 7.68 -4 7 C-1.69 6.34 0.62 5.68 3 5 C3 4.34 3 3.68 3 3 C2.01 2.67 1.02 2.34 0 2 C0 1.34 0 0.68 0 0 Z " fill="#666666" transform="translate(48,12)"/>
<path d="M0 0 C3.8039528 2.32332521 4.74710926 4.28384522 5.8125 8.5625 C6.06644531 9.53316406 6.32039062 10.50382812 6.58203125 11.50390625 C7 14 7 14 6 16 C3.36 15.67 0.72 15.34 -2 15 C-2 15.66 -2 16.32 -2 17 C-2.66 17 -3.32 17 -4 17 C-4.19658808 15.58456585 -4.38187546 14.16755969 -4.5625 12.75 C-4.66691406 11.96109375 -4.77132812 11.1721875 -4.87890625 10.359375 C-5.00027349 7.99467126 -4.69633257 6.2488963 -4 4 C-1 5 -1 5 0 6 C1.24546405 3.50907189 0.7767578 2.58919267 0 0 Z " fill="#666666" transform="translate(128,43)"/>
<path d="M0 0 C2.4890535 0.44447384 3.85591985 0.87827712 5.8125 2.53125 C8.51100828 4.34310556 10.0375628 4.31430673 13.25 4.1875 C14.14203125 4.16042969 15.0340625 4.13335937 15.953125 4.10546875 C16.96632813 4.05326172 16.96632813 4.05326172 18 4 C18 5.98 18 7.96 18 10 C14.78760254 11.01228554 13.34657762 11.14045262 10.17578125 9.85546875 C9.23089844 9.30503906 8.28601562 8.75460938 7.3125 8.1875 C6.35988281 7.64480469 5.40726563 7.10210937 4.42578125 6.54296875 C2 5 2 5 0 3 C0 2.01 0 1.02 0 0 Z " fill="#666666" transform="translate(12,55)"/>
<path d="M0 0 C0.66 0 1.32 0 2 0 C2.33 1.98 2.66 3.96 3 6 C4.32 5.34 5.64 4.68 7 4 C6.67 3.34 6.34 2.68 6 2 C9.875 3.875 9.875 3.875 11 5 C11.04092937 7.33297433 11.04241723 9.66705225 11 12 C6.86393236 11.39175476 3.53941352 10.25235406 0 8 C-1.24423499 4.68204004 -1.12906176 3.38718527 0 0 Z " fill="#666666" transform="translate(75,53)"/>
<path d="M0 0 C0.33 0 0.66 0 1 0 C2.4882976 6.01563645 1.66562872 11.79126686 1.0625 17.875 C0.91264648 19.47988281 0.91264648 19.47988281 0.75976562 21.1171875 C0.51335939 23.74552068 0.25990326 26.37297295 0 29 C0.99 29.33 1.98 29.66 3 30 C1.68 30 0.36 30 -1 30 C-1.33 29.01 -1.66 28.02 -2 27 C-2.66 27 -3.32 27 -4 27 C-3.87882812 26.47535156 -3.75765625 25.95070313 -3.6328125 25.41015625 C-1.81669088 17.01408629 -0.93012805 8.52947214 0 0 Z " fill="blue" transform="translate(55,20)"/>
<path d="M0 0 C2.3828125 0.2421875 2.3828125 0.2421875 5.125 0.875 C6.03507812 1.07867187 6.94515625 1.28234375 7.8828125 1.4921875 C8.93082031 1.74355469 8.93082031 1.74355469 10 2 C9.01 3.485 9.01 3.485 8 5 C5.04935852 5.2208564 2.31631769 5.28060989 -0.625 5.1875 C-1.42679688 5.17396484 -2.22859375 5.16042969 -3.0546875 5.14648438 C-5.03674378 5.11109051 -7.01845551 5.05728234 -9 5 C-9 4.67 -9 4.34 -9 4 C-7.88625 3.71125 -6.7725 3.4225 -5.625 3.125 C-1.99708908 2.30758671 -1.99708908 2.30758671 0 0 Z " fill="blue" transform="translate(63,51)"/>
<path d="M0 0 C0.66 0 1.32 0 2 0 C0.7016661 2.89628331 -0.45322053 5.0679604 -3 7 C-5.30988315 7.74386068 -7.64315944 8.42190703 -10 9 C-9.65120368 5.74456771 -8.97866739 4.98126893 -6.4375 2.75 C-5.633125 2.1725 -4.82875 1.595 -4 1 C-3.34 1.33 -2.68 1.66 -2 2 C-1.34 1.34 -0.68 0.68 0 0 Z " fill="#666666" transform="translate(181,33)"/>
<path d="M0 0 C2.38672669 2.96283313 4.7353371 5.94270509 7 9 C6.67 9.66 6.34 10.32 6 11 C3.69 9.02 1.38 7.04 -1 5 C-0.67 3.35 -0.34 1.7 0 0 Z " fill="blue" transform="translate(99,48)"/>
<path d="M0 0 C0.33 0.66 0.66 1.32 1 2 C0.67 2.66 0.34 3.32 0 4 C-0.66 4 -1.32 4 -2 4 C-2 4.66 -2 5.32 -2 6 C-7.75 6.125 -7.75 6.125 -10 5 C-10 4.34 -10 3.68 -10 3 C-9.04287109 2.80083984 -9.04287109 2.80083984 -8.06640625 2.59765625 C-7.24011719 2.42105469 -6.41382813 2.24445312 -5.5625 2.0625 C-4.73878906 1.88847656 -3.91507813 1.71445312 -3.06640625 1.53515625 C-1.02338796 1.19247006 -1.02338796 1.19247006 0 0 Z " fill="blue" transform="translate(25,49)"/>
<path d="M0 0 C-1.423125 0.804375 -1.423125 0.804375 -2.875 1.625 C-6.36739592 4.2792209 -7.04735876 5.80837855 -8 10 C-8.33 10 -8.66 10 -9 10 C-10.34188034 4.63247863 -10.34188034 4.63247863 -8.75 1.6875 C-5.79984693 -1.15729046 -3.71331203 -1.15240718 0 0 Z " fill="blue" transform="translate(30,16)"/>
<path d="M0 0 C0.144375 0.61875 0.28875 1.2375 0.4375 1.875 C0.93152225 4.03258322 0.93152225 4.03258322 2 6 C0.35 6.33 -1.3 6.66 -3 7 C-3.33 5.68 -3.66 4.36 -4 3 C-3.34 3 -2.68 3 -2 3 C-1.67 2.34 -1.34 1.68 -1 1 C-0.67 0.67 -0.34 0.34 0 0 Z " fill="blue" transform="translate(81,52)"/>
<path d="M0 0 C0.33 0 0.66 0 1 0 C1.22304441 1.74818591 1.4278645 3.49870323 1.625 5.25 C1.74101563 6.22453125 1.85703125 7.1990625 1.9765625 8.203125 C2.00112537 11.13429393 1.5312717 12.54528964 0 15 C-0.66 15 -1.32 15 -2 15 C-1.855625 14.38125 -1.71125 13.7625 -1.5625 13.125 C-0.77943337 8.77462983 -0.40153341 4.39978093 0 0 Z " fill="blue" transform="translate(78,24)"/>
<path d="M0 0 C0.99 0.33 1.98 0.66 3 1 C2.6875 3.375 2.6875 3.375 2 6 C1.01 6.66 0.02 7.32 -1 8 C-0.67 5.36 -0.34 2.72 0 0 Z " fill="blue" transform="translate(124,47)"/>
<path d="M0 0 C0.33 0 0.66 0 1 0 C1.125 5.75 1.125 5.75 0 8 C-0.66 8 -1.32 8 -2 8 C-2.125 5.125 -2.125 5.125 -2 2 C-1.34 1.34 -0.68 0.68 0 0 Z " fill="blue" transform="translate(126,52)"/>
</svg>
